<svg width="50" height="50" viewBox="0 0 50 50" fill="none" xmlns="http://www.w3.org/2000/svg">
<g id="Group 30">
<g id="Group 22">
<rect id="Rectangle 13" x="0.5" y="0.5" width="49" height="49" stroke="#C6C3C3"/>
<path id="Vector" d="M39.2058 18.5726C39.0452 17.9589 38.7305 17.3994 38.2934 16.9501C37.8564 16.5007 37.3121 16.1773 36.7152 16.0121C34.5171 15.4005 25.6841 15.4005 25.6841 15.4005C25.6841 15.4005 16.8511 15.4005 14.6529 16.0121C14.056 16.1773 13.5118 16.5007 13.0747 16.9501C12.6376 17.3994 12.323 17.9589 12.1623 18.5726C11.7519 20.8772 11.5527 23.2164 11.5674 25.5593C11.5527 27.9023 11.7519 30.2414 12.1623 32.5461C12.323 33.1597 12.6376 33.7192 13.0747 34.1686C13.5118 34.6179 14.056 34.9414 14.6529 35.1065C16.8511 35.7181 25.6841 35.7181 25.6841 35.7181C25.6841 35.7181 34.5171 35.7181 36.7152 35.1065C37.3121 34.9414 37.8564 34.6179 38.2934 34.1686C38.7305 33.7192 39.0452 33.1597 39.2058 32.5461C39.6163 30.2414 39.8155 27.9023 39.8007 25.5593C39.8155 23.2164 39.6163 20.8772 39.2058 18.5726ZM22.8607 29.9131V21.2055L30.1913 25.5593L22.8607 29.9131Z" fill="#B9B7B7"/>
</g>
</g>
</svg>
